<svg width="69" height="58" viewBox="0 0 69 58" version="1.1" xmlns="http://www.w3.org/2000/svg" xmlns:xlink="http://www.w3.org/1999/xlink">
<title>Group</title>
<desc>Created using Figma</desc>
<g id="Canvas" transform="translate(-1232 163)">
<g id="Group">
<g id="Group">
<g id="Group">
<g id="Vector">
<use xlink:href="#path0_fill" transform="translate(1238.01 -118.647)" fill="#303030"/>
</g>
<g id="Vector">
<use xlink:href="#path1_fill" transform="translate(1238.01 -114.098)" fill="#303030"/>
</g>
<g id="Vector">
<use xlink:href="#path2_fill" transform="translate(1232 -163)" fill="#303030"/>
</g>
<g id="Vector">
<use xlink:href="#path3_fill" transform="translate(1275.7 -139.113)" fill="#303030"/>
</g>
<g id="Vector">
<use xlink:href="#path4_fill" transform="translate(1237.75 -144.824)" fill="#303030"/>
</g>
</g>
</g>
</g>
</g>
<defs>
<path id="path0_fill" d="M 19.2894 1.62685e-06L 1.14995 1.62685e-06C 0.514804 1.62685e-06 -2.05636e-07 0.509098 -2.05636e-07 1.13721C -2.05636e-07 1.76532 0.514804 2.27441 1.14995 2.27441L 19.2894 2.27441C 19.9245 2.27441 20.4393 1.76532 20.4393 1.13721C 20.4393 0.509098 19.9245 1.62685e-06 19.2894 1.62685e-06Z"/>
<path id="path1_fill" d="M 11.2394 1.98476e-06L 1.14995 1.98476e-06C 0.514804 1.98476e-06 -2.05636e-07 0.509098 -2.05636e-07 1.13721C -2.05636e-07 1.76532 0.514804 2.27441 1.14995 2.27441L 11.2394 2.27441C 11.8746 2.27441 12.3894 1.76532 12.3894 1.13721C 12.3894 0.509098 11.8746 1.98476e-06 11.2394 1.98476e-06Z"/>
<path id="path2_fill" d="M 63.2498 11.3726L 63.1547 11.3726C 62.848 8.5209 61.5824 5.85333 59.5606 3.79721C 57.2297 1.36541 53.9881 -0.00822601 50.5998 3.68317e-05C 44.1043 0.0935936 38.7085 4.98173 38.0463 11.3725L 5.75003 11.3725C 2.57591 11.3764 0.00377343 13.9201 0 17.0589L 0 52.3137C 0.00377343 55.4527 2.57591 57.9963 5.75003 58L 63.25 58C 66.4241 57.9963 68.9962 55.4527 69 52.3137L 69 17.0589C 68.9961 13.9201 66.424 11.3764 63.2498 11.3726ZM 40.25 12.8965C 40.1504 7.1402 44.7794 2.3896 50.6 2.27472C 53.3645 2.26979 56.0088 3.39287 57.9087 5.37888C 59.8822 7.39208 60.9747 10.0927 60.9499 12.8965L 60.9499 19.0851C 60.2159 18.5962 59.4473 18.1604 58.6499 17.7809L 58.6499 12.8965C 58.6763 10.692 57.822 8.56634 56.2724 6.98147C 54.8006 5.43312 52.7486 4.55326 50.5998 4.54927C 46.0495 4.66388 42.45 8.39629 42.5499 12.8965L 42.5499 17.7809C 41.7526 18.1604 40.9839 18.5964 40.2498 19.0851L 40.2498 12.8965L 40.25 12.8965ZM 56.3498 13.6472L 56.3498 16.8444C 52.6174 15.6141 48.5822 15.6141 44.8499 16.8444L 44.8499 13.6472L 56.3498 13.6472ZM 45.0558 11.3726C 45.6216 8.77318 47.9122 6.89378 50.6 6.82368C 52.1278 6.82248 53.5862 7.45406 54.6216 8.56514C 55.381 9.34531 55.9096 10.3163 56.1499 11.3728L 45.0558 11.3728L 45.0558 11.3726ZM 66.6998 52.3138C 66.6978 54.1972 65.1543 55.7236 63.2498 55.7256L 5.75003 55.7256C 3.84553 55.7236 2.30206 54.1972 2.30004 52.3138L 2.30004 17.0589C 2.30206 15.1755 3.84553 13.6492 5.75003 13.6472L 37.9499 13.6472L 37.9499 20.9385C 32.6895 25.8699 30.8502 33.3977 33.2532 40.1603C 35.6562 46.9229 41.853 51.658 49.0766 52.2513C 56.3 52.8445 63.2019 49.1852 66.7 42.9073L 66.7 52.3138L 66.6998 52.3138ZM 50.6 50.0393C 41.7081 50.0393 34.4999 42.911 34.4999 34.1177C 34.5099 25.3286 41.7123 18.206 50.6 18.1962C 59.4918 18.1962 66.7 25.3245 66.7 34.1177C 66.7 42.911 59.4916 50.0393 50.6 50.0393ZM 66.6998 25.3282C 65.7828 23.6996 64.6193 22.2194 63.2498 20.9385L 63.2498 13.6472C 65.1543 13.6492 66.6978 15.1755 66.6998 17.0589L 66.6998 25.3282Z"/>
<path id="path3_fill" d="M 6.90057 -7.32083e-07C 3.77765 -7.32083e-07 1.04393 2.07437 0.235745 5.05739C -0.572578 8.04055 0.746102 11.1886 3.45057 12.7328L 3.45057 18.1913C 3.45057 20.0755 4.99512 21.6031 6.90057 21.6031C 8.80602 21.6031 10.3506 20.0756 10.3506 18.1913L 10.3506 12.7328C 13.0552 11.1886 14.3737 8.04055 13.5654 5.05739C 12.7571 2.07424 10.0235 -7.32083e-07 6.90057 -7.32083e-07ZM 8.73446 10.9992C 8.3187 11.1815 8.05065 11.5889 8.05052 12.0387L 8.05052 18.1915C 8.05052 18.8196 7.53572 19.3287 6.90057 19.3287C 6.26542 19.3287 5.75061 18.8196 5.75061 18.1915L 5.75061 12.0387C 5.75048 11.5889 5.48243 11.1815 5.06668 10.9992C 3.06771 10.1381 1.95333 8.0087 2.39698 5.89767C 2.84049 3.78652 4.72033 2.27242 6.9007 2.26988C 9.08107 2.27228 10.9609 3.78652 11.4044 5.89767C 11.8478 8.0087 10.7334 10.1381 8.73446 10.9992Z"/>
<path id="path4_fill" d="M 18.2045 17.5797L 18.2045 17.5786L 14.2087 15.6318C 14.0886 15.5749 14.0113 15.4559 14.0089 15.3242L 14.0089 14.2025C 14.0617 14.1336 14.1167 14.0615 14.1717 13.9848C 14.6809 13.2809 15.0955 12.5145 15.4048 11.7048C 16.0979 11.2777 16.5187 10.5267 16.5177 9.71908L 16.5177 8.08877C 16.5167 7.61659 16.371 7.15587 16.0999 6.76712L 16.0999 4.88572C 16.1912 3.73772 15.8171 2.60091 15.0599 1.72612C 13.8196 0.500683 12.0971 -0.123162 10.3498 0.0202384C 8.60261 -0.123162 6.88004 0.500683 5.6398 1.72612C 4.88255 2.60091 4.50844 3.73772 4.59981 4.88572L 4.59981 6.76712C 4.32866 7.15574 4.18298 7.61659 4.18204 8.08877L 4.18204 9.71908C 4.18217 10.3476 4.43796 10.9496 4.89185 11.3894C 5.19305 12.3883 5.65947 13.331 6.27211 14.1792L 6.27211 15.2864C 6.26996 15.4136 6.19759 15.5296 6.08344 15.5885L 2.35273 17.572C 0.906836 18.3356 0.00283016 19.8237 8.77577e-08 21.4446L 8.77577e-08 22.765C -0.000134678 23.0668 0.120885 23.3561 0.336644 23.5693C 0.552403 23.7827 0.844979 23.9024 1.14995 23.9023L 19.5499 23.9023C 19.855 23.9024 20.1476 23.7827 20.3632 23.5693C 20.5789 23.356 20.7 23.0666 20.6998 22.765L 20.6998 21.5246C 20.7024 19.8451 19.7327 18.3122 18.2045 17.5797ZM 18.3999 21.6278L 2.29991 21.6278L 2.29991 21.4446C 2.30314 20.661 2.74207 19.9428 3.44204 19.5755L 7.17396 17.5908C 8.0335 17.1358 8.57067 16.2505 8.57215 15.2862L 8.57215 13.7959C 8.57229 13.5265 8.47553 13.266 8.29926 13.0606C 7.7013 12.2986 7.26911 11.4224 7.03017 10.4874C 6.94662 10.1745 6.75215 9.9018 6.48208 9.71882L 6.51469 8.034C 6.7597 7.8181 6.89985 7.50891 6.89985 7.18439L 6.89985 4.82668C 6.89985 4.7867 6.8954 4.73006 6.89204 4.69008C 6.85376 4.1498 7.03206 3.61644 7.38838 3.20516C 8.20815 2.51402 9.27833 2.18497 10.3498 2.29452C 11.4214 2.18497 12.4915 2.51402 13.3113 3.20516C 13.6644 3.61271 13.8432 4.14007 13.8099 4.67569C 13.8032 4.7258 13.7998 4.77617 13.7998 4.82668L 13.7998 7.18452C 13.8114 7.5289 13.9618 7.85448 14.2176 8.08851L 14.1424 9.79438C 13.7837 9.9034 13.5009 10.1779 13.3844 10.5307C 13.1371 11.291 12.7723 12.0088 12.3029 12.6587C 12.1928 12.8097 12.0906 12.9385 12.0007 13.0385C 11.8129 13.2471 11.709 13.5165 11.7087 13.7959L 11.7087 15.324C 11.7152 16.3211 12.289 17.2296 13.1922 17.6729L 17.187 19.6198C 17.9274 19.9719 18.3987 20.7121 18.3999 21.5246L 18.3999 21.6278Z"/>
</defs>
</svg>
