<svg width="90" height="52" viewBox="0 0 90 52" version="1.1" xmlns="http://www.w3.org/2000/svg" xmlns:xlink="http://www.w3.org/1999/xlink">
<title>9</title>
<desc>Created using Figma</desc>
<g id="Canvas" transform="translate(280 -314)">
<g id="9">
<g id="Page 1">
<g id="Valentine day icon set">
<g id="9">
<g id="Group 2">
<g id="Group 4">
<g id="Path 5">
<use xlink:href="#path0_fill" transform="translate(-235.788 316)" fill="#FB6161"/>
<use xlink:href="#path1_stroke" transform="translate(-235.788 316)" fill="#FB6161"/>
</g>
</g>
</g>
<g id="Rectangle 44">
<use xlink:href="#path2_stroke" transform="translate(-278 330.853)" fill="#FB6161"/>
</g>
<g id="Path 63">
<use xlink:href="#path3_stroke" transform="translate(-265.079 335.946)" fill="#FB6161"/>
</g>
<g id="Path 67">
<use xlink:href="#path4_stroke" transform="translate(-265.079 319.255)" fill="#FB6161"/>
</g>
<g id="Path 68">
<use xlink:href="#path5_stroke" transform="translate(-201.991 318.9)" fill="#FB6161"/>
</g>
</g>
</g>
</g>
</g>
</g>
<defs>
<path id="path0_fill" fill-rule="evenodd" d="M 22.2069 31.1357L 22.2069 33.5823L 22.2069 31.1357L 22.5316 33.5823L 33.4006 24.3191C 35.4405 22.5806 37.4836 19.0379 37.9409 16.4059C 37.9409 16.4059 38.3038 14.6973 38.3038 13.7917C 38.3038 12.8342 37.9669 11.3637 37.9669 11.3637C 37.4849 8.73338 35.5828 5.04419 33.7211 3.12654L 32.1743 1.53317C 30.3114 -0.38576 27.1635 -0.521164 25.1471 1.22738L 18.9824 6.57325L 12.768 1.22089C 10.7462 -0.520451 7.58919 -0.383214 5.7263 1.53572L 4.17946 3.12908C 2.31781 5.04673 0.554662 8.76134 0.244134 11.423C 0.244134 11.423 0 13.119 0 14.2002C 0 14.9821 2.25316 19.0708 2.25316 19.0708C 3.48377 21.4321 6.67182 23.355 9.34309 23.355L 21.1741 23.355L 22.2069 31.1357Z"/>
<path id="path1_stroke" d="M 22.2069 31.1357L 23.9319 31.1357C 23.9319 31.0598 23.9269 30.9839 23.9169 30.9087L 22.2069 31.1357ZM 20.4819 33.5823C 20.4819 34.5349 21.2542 35.3073 22.2069 35.3073C 23.1596 35.3073 23.9319 34.5349 23.9319 33.5823L 20.4819 33.5823ZM 22.2069 31.1357L 23.9169 30.9087C 23.7974 30.008 22.9997 29.3545 22.0932 29.4144C 21.1866 29.4743 20.4819 30.2271 20.4819 31.1357L 22.2069 31.1357ZM 22.5316 33.5823L 20.8216 33.8092C 20.9048 34.4355 21.3236 34.9663 21.9135 35.1927C 22.5033 35.4191 23.1697 35.3049 23.6506 34.8951L 22.5316 33.5823ZM 33.4006 24.3191L 34.5195 25.632L 33.4006 24.3191ZM 37.9409 16.4059L 36.2535 16.0475C 36.2491 16.0685 36.245 16.0895 36.2413 16.1106L 37.9409 16.4059ZM 37.9669 11.3637L 36.2701 11.6746C 36.2747 11.6995 36.2798 11.7243 36.2854 11.749L 37.9669 11.3637ZM 33.7211 3.12654L 32.4834 4.32809L 32.4834 4.32809L 33.7211 3.12654ZM 32.1743 1.53317L 33.412 0.331619L 33.412 0.331619L 32.1743 1.53317ZM 25.1471 1.22738L 26.2772 2.53062L 25.1471 1.22738ZM 18.9824 6.57325L 17.8567 7.88029C 18.5054 8.43901 19.4657 8.43739 20.1125 7.87649L 18.9824 6.57325ZM 12.768 1.22089L 11.6422 2.52793L 11.6422 2.52793L 12.768 1.22089ZM 5.7263 1.53572L 6.964 2.73727L 5.7263 1.53572ZM 4.17946 3.12908L 5.41716 4.33064L 4.17946 3.12908ZM 0.244134 11.423L 1.95153 11.6688C 1.95373 11.6535 1.95573 11.6382 1.95751 11.6229L 0.244134 11.423ZM 2.25316 19.0708L 3.78288 18.2736C 3.77671 18.2617 3.7704 18.25 3.76395 18.2383L 2.25316 19.0708ZM 21.1741 23.355L 22.8841 23.128C 22.7703 22.2706 22.0391 21.63 21.1741 21.63L 21.1741 23.355ZM 20.4819 31.1357L 20.4819 33.5823L 23.9319 33.5823L 23.9319 31.1357L 20.4819 31.1357ZM 23.9319 33.5823L 23.9319 31.1357L 20.4819 31.1357L 20.4819 33.5823L 23.9319 33.5823ZM 20.4969 31.3626L 20.8216 33.8092L 24.2416 33.3553L 23.9169 30.9087L 20.4969 31.3626ZM 23.6506 34.8951L 34.5195 25.632L 32.2817 23.0062L 21.4127 32.2694L 23.6506 34.8951ZM 34.5195 25.632C 35.7346 24.5964 36.8723 23.1014 37.7599 21.557C 38.6468 20.0137 39.3667 18.2768 39.6404 16.7012L 36.2413 16.1106C 36.0578 17.167 35.5275 18.5175 34.7686 19.8381C 34.0103 21.1576 33.1066 22.3032 32.2817 23.0062L 34.5195 25.632ZM 37.9409 16.4059C 39.6282 16.7643 39.6283 16.7642 39.6283 16.7641C 39.6283 16.7641 39.6283 16.764 39.6283 16.7639C 39.6284 16.7637 39.6284 16.7635 39.6285 16.7633C 39.6285 16.7628 39.6287 16.7623 39.6288 16.7616C 39.6291 16.7603 39.6294 16.7586 39.6299 16.7565C 39.6308 16.7522 39.632 16.7464 39.6336 16.7389C 39.6367 16.7241 39.641 16.7031 39.6464 16.6766C 39.6573 16.6235 39.6725 16.5481 39.6906 16.4552C 39.7268 16.2701 39.775 16.0128 39.8235 15.724C 39.9141 15.1844 40.0288 14.4035 40.0288 13.7917L 36.5788 13.7917C 36.5788 14.0855 36.512 14.6117 36.4212 15.1528C 36.3789 15.4044 36.3364 15.6308 36.3045 15.7944C 36.2886 15.8758 36.2755 15.9409 36.2665 15.9849C 36.262 16.0068 36.2586 16.0234 36.2563 16.0341C 36.2552 16.0394 36.2544 16.0432 36.2539 16.0455C 36.2537 16.0466 36.2536 16.0474 36.2535 16.0477C 36.2534 16.0479 36.2534 16.0479 36.2534 16.0479C 36.2534 16.0479 36.2535 16.0479 36.2535 16.0478C 36.2535 16.0478 36.2535 16.0477 36.2535 16.0477C 36.2535 16.0476 36.2535 16.0475 37.9409 16.4059ZM 40.0288 13.7917C 40.0288 13.1576 39.9224 12.4296 39.8351 11.9248C 39.7891 11.6586 39.7433 11.426 39.7088 11.2593C 39.6915 11.1756 39.6769 11.1078 39.6664 11.0598C 39.6612 11.0358 39.6569 11.0167 39.6538 11.003C 39.6523 10.9961 39.651 10.9906 39.6501 10.9865C 39.6497 10.9844 39.6493 10.9827 39.649 10.9814C 39.6488 10.9807 39.6487 10.9801 39.6486 10.9797C 39.6485 10.9794 39.6484 10.9792 39.6484 10.979C 39.6484 10.9789 39.6483 10.9787 39.6483 10.9787C 39.6483 10.9786 39.6483 10.9784 37.9669 11.3637C 36.2854 11.749 36.2854 11.7489 36.2854 11.7488C 36.2854 11.7488 36.2854 11.7487 36.2853 11.7486C 36.2853 11.7485 36.2853 11.7484 36.2853 11.7483C 36.2853 11.7482 36.2852 11.7481 36.2852 11.7482C 36.2853 11.7483 36.2854 11.7487 36.2855 11.7494C 36.2859 11.751 36.2865 11.7538 36.2875 11.758C 36.2893 11.7663 36.2923 11.7797 36.2963 11.7977C 36.3042 11.8339 36.3159 11.8885 36.3302 11.9576C 36.3589 12.0966 36.3973 12.2914 36.4355 12.5125C 36.5168 12.9823 36.5788 13.4683 36.5788 13.7917L 40.0288 13.7917ZM 39.6636 11.0528C 39.3825 9.51843 38.7121 7.77335 37.8947 6.18749C 37.0772 4.60163 36.0448 3.04364 34.9588 1.92498L 32.4834 4.32809C 33.2591 5.12708 34.1086 6.37251 34.8281 7.76825C 35.5476 9.16399 36.0693 10.5787 36.2701 11.6746L 39.6636 11.0528ZM 34.9588 1.92498L 33.412 0.331619L 30.9366 2.73473L 32.4834 4.32809L 34.9588 1.92498ZM 33.412 0.331619C 30.9126 -2.24292 26.7257 -2.42475 24.017 -0.0758544L 26.2772 2.53062C 27.6013 1.38242 29.7102 1.4714 30.9366 2.73473L 33.412 0.331619ZM 24.017 -0.0758544L 17.8523 5.27001L 20.1125 7.87649L 26.2772 2.53062L 24.017 -0.0758544ZM 20.1081 5.26621L 13.8937 -0.0861496L 11.6422 2.52793L 17.8567 7.88029L 20.1081 5.26621ZM 13.8937 -0.0861495C 11.181 -2.42255 6.98799 -2.2404 4.4886 0.334165L 6.964 2.73727C 8.1904 1.47398 10.3113 1.38165 11.6422 2.52793L 13.8937 -0.0861495ZM 4.4886 0.334165L 2.94177 1.92753L 5.41716 4.33064L 6.964 2.73727L 4.4886 0.334165ZM 2.94177 1.92753C 1.83925 3.06321 0.835761 4.64737 0.0716934 6.25751C -0.692457 7.86782 -1.2855 9.64819 -1.46925 11.2231L 1.95751 11.6229C 2.0843 10.5362 2.52809 9.1284 3.18856 7.73657C 3.84911 6.34457 4.65803 5.1126 5.41716 4.33064L 2.94177 1.92753ZM 0.244134 11.423C -1.46327 11.1772 -1.46328 11.1773 -1.46329 11.1774C -1.4633 11.1774 -1.46331 11.1775 -1.46332 11.1776C -1.46334 11.1778 -1.46337 11.1779 -1.4634 11.1782C -1.46346 11.1786 -1.46353 11.1791 -1.46362 11.1797C -1.46379 11.1809 -1.46403 11.1826 -1.46432 11.1846C -1.4649 11.1887 -1.46571 11.1944 -1.46672 11.2016C -1.46876 11.216 -1.47163 11.2366 -1.47524 11.2627C -1.48243 11.315 -1.49254 11.3897 -1.50459 11.4823C -1.52864 11.6671 -1.56066 11.925 -1.59275 12.219C -1.65496 12.7889 -1.725 13.5608 -1.725 14.2002L 1.725 14.2002C 1.725 13.7584 1.77703 13.1417 1.83688 12.5933C 1.86583 12.3282 1.89484 12.0945 1.91657 11.9275C 1.92741 11.8442 1.93637 11.778 1.94252 11.7333C 1.9456 11.711 1.94796 11.694 1.94951 11.6831C 1.95028 11.6776 1.95084 11.6737 1.95119 11.6712C 1.95136 11.67 1.95147 11.6692 1.95153 11.6688C 1.95156 11.6686 1.95158 11.6685 1.95158 11.6685C 1.95158 11.6685 1.95157 11.6685 1.95157 11.6686C 1.95156 11.6686 1.95155 11.6687 1.95155 11.6687C 1.95154 11.6687 1.95153 11.6688 0.244134 11.423ZM -1.725 14.2002C -1.725 14.5999 -1.60524 14.9809 -1.54123 15.1748C -1.4579 15.4272 -1.34879 15.7013 -1.23366 15.9702C -1.00196 16.5112 -0.702113 17.1319 -0.414464 17.7038C -0.124448 18.2804 0.164193 18.8292 0.379501 19.2323C 0.487404 19.4344 0.577471 19.601 0.640827 19.7175C 0.672516 19.7758 0.697557 19.8216 0.714844 19.8532C 0.723488 19.869 0.730196 19.8812 0.734829 19.8896C 0.737146 19.8939 0.738945 19.8971 0.740208 19.8994C 0.74084 19.9006 0.741338 19.9015 0.741699 19.9021C 0.74188 19.9025 0.742027 19.9027 0.74214 19.9029C 0.742196 19.903 0.742255 19.9031 0.742283 19.9032C 0.742333 19.9033 0.742375 19.9034 2.25316 19.0708C 3.76395 18.2383 3.76398 18.2383 3.76399 18.2383C 3.76399 18.2383 3.764 18.2383 3.76398 18.2383C 3.76396 18.2383 3.7639 18.2382 3.76381 18.238C 3.76362 18.2377 3.76331 18.2371 3.76285 18.2363C 3.76195 18.2346 3.76052 18.232 3.75857 18.2285C 3.75468 18.2214 3.74874 18.2106 3.74088 18.1962C 3.72516 18.1675 3.70179 18.1247 3.67187 18.0697C 3.61201 17.9596 3.52604 17.8006 3.42271 17.6071C 3.21555 17.2192 2.9409 16.6969 2.66763 16.1536C 2.39199 15.6056 2.12854 15.0575 1.93777 14.612C 1.84167 14.3876 1.77475 14.214 1.73486 14.0932C 1.67566 13.9139 1.725 13.996 1.725 14.2002L -1.725 14.2002ZM 0.723446 19.868C 1.51908 21.3947 2.88126 22.6782 4.36612 23.575C 5.85142 24.472 7.62171 25.08 9.34309 25.08L 9.34309 21.63C 8.3932 21.63 7.23383 21.2765 6.14964 20.6218C 5.065 19.9667 4.21786 19.1082 3.78288 18.2736L 0.723446 19.868ZM 9.34309 25.08L 21.1741 25.08L 21.1741 21.63L 9.34309 21.63L 9.34309 25.08ZM 19.4641 23.582L 20.4969 31.3626L 23.9169 30.9087L 22.8841 23.128L 19.4641 23.582Z"/>
<path id="path2_stroke" d="M 4.6 1.725L 7.72215 1.725L 7.72215 -1.725L 4.6 -1.725L 4.6 1.725ZM 7.72215 1.725C 9.30997 1.725 10.5972 3.01218 10.5972 4.6L 14.0472 4.6C 14.0472 1.1068 11.2154 -1.725 7.72215 -1.725L 7.72215 1.725ZM 10.5972 4.6L 10.5972 28.3136L 14.0472 28.3136L 14.0472 4.6L 10.5972 4.6ZM 10.5972 28.3136C 10.5972 29.9015 9.30997 31.1886 7.72215 31.1886L 7.72215 34.6386C 11.2154 34.6386 14.0472 31.8068 14.0472 28.3136L 10.5972 28.3136ZM 7.72215 31.1886L 4.6 31.1886L 4.6 34.6386L 7.72215 34.6386L 7.72215 31.1886ZM 4.6 31.1886C 3.01218 31.1886 1.725 29.9015 1.725 28.3136L -1.725 28.3136C -1.725 31.8068 1.1068 34.6386 4.6 34.6386L 4.6 31.1886ZM 1.725 28.3136L 1.725 4.6L -1.725 4.6L -1.725 28.3136L 1.725 28.3136ZM 1.725 4.6C 1.725 3.01218 3.01218 1.725 4.6 1.725L 4.6 -1.725C 1.1068 -1.725 -1.725 1.1068 -1.725 4.6L 1.725 4.6Z"/>
<path id="path3_stroke" d="M 1.725 4.74731e-07C 1.725 -0.952691 0.952691 -1.725 2.01331e-07 -1.725C -0.952691 -1.725 -1.725 -0.952691 -1.725 4.74731e-07L 1.725 4.74731e-07ZM 2.01331e-07 24.2204L -1.725 24.2204L -1.725 25.9454L 2.01331e-07 25.9454L 2.01331e-07 24.2204ZM 29.5332 19.9578L 28.3082 18.7434L 29.5332 19.9578ZM 36.1972 13.236L 36.1972 11.511L 35.4783 11.511L 34.9722 12.0215L 36.1972 13.236ZM 48.8197 3.72085L 48.8091 5.44582L 48.8197 3.72085ZM 20.3651 1.82049C 19.4124 1.81462 18.6353 2.58215 18.6295 3.53483C 18.6236 4.4875 19.3911 5.26455 20.3438 5.27042L 20.3651 1.82049ZM -1.725 4.74731e-07L -1.725 24.2204L 1.725 24.2204L 1.725 4.74731e-07L -1.725 4.74731e-07ZM 2.01331e-07 25.9454L 19.3098 25.9454L 19.3098 22.4954L 2.01331e-07 22.4954L 2.01331e-07 25.9454ZM 19.3098 25.9454C 21.2596 25.9454 23.4638 25.3925 25.4544 24.5622C 27.445 23.7318 29.3875 22.555 30.7582 21.1723L 28.3082 18.7434C 27.3499 19.71 25.8369 20.6645 24.1262 21.3781C 22.4154 22.0917 20.6724 22.4954 19.3098 22.4954L 19.3098 25.9454ZM 30.7582 21.1723L 37.4222 14.4505L 34.9722 12.0215L 28.3082 18.7434L 30.7582 21.1723ZM 36.1972 14.961L 48.8285 14.961L 48.8285 11.511L 36.1972 11.511L 36.1972 14.961ZM 48.8285 14.961C 51.4388 14.961 53.5478 12.8443 53.5478 10.2312L 50.0978 10.2312C 50.0978 10.9467 49.5256 11.511 48.8285 11.511L 48.8285 14.961ZM 53.5478 10.2312L 53.5478 6.74415L 50.0978 6.74415L 50.0978 10.2312L 53.5478 10.2312ZM 53.5478 6.74415C 53.5478 4.13418 51.4279 2.01189 48.8303 1.99589L 48.8091 5.44582C 49.5134 5.45016 50.0978 6.03512 50.0978 6.74415L 53.5478 6.74415ZM 48.8303 1.99589L 20.3651 1.82049L 20.3438 5.27042L 48.8091 5.44582L 48.8303 1.99589Z"/>
<path id="path4_stroke" d="M 14.5815 4.25589L 15.8065 5.47037L 14.5815 4.25589ZM 1.22502 20.1785L 15.8065 5.47037L 13.3565 3.04142L -1.22502 17.7495L 1.22502 20.1785ZM 15.8065 5.47037C 16.7649 4.50368 18.2776 3.5509 19.9872 2.83896C 21.6969 2.12701 23.4375 1.725 24.7951 1.725L 24.7951 -1.725C 22.8512 -1.725 20.6502 -1.1743 18.6609 -0.345918C 16.6717 0.48247 14.7284 1.65764 13.3565 3.04142L 15.8065 5.47037ZM 24.7951 1.725L 34.3625 1.725L 34.3625 -1.725L 24.7951 -1.725L 24.7951 1.725Z"/>
<path id="path5_stroke" d="M -5.64258e-07 1.725L 7.19598 1.725L 7.19598 -1.725L -5.64258e-07 -1.725L -5.64258e-07 1.725ZM 7.19598 1.725C 7.90422 1.725 8.47664 2.30185 8.47664 3.00057L 11.9266 3.00057C 11.9266 0.394557 9.80769 -1.725 7.19598 -1.725L 7.19598 1.725ZM 8.47664 3.00057L 8.47664 8.36324L 11.9266 8.36324L 11.9266 3.00057L 8.47664 3.00057ZM 8.47664 8.36324C 8.47664 9.06827 7.90233 9.63881 7.20521 9.63881L 7.20521 13.0888C 9.80883 13.0888 11.9266 10.9725 11.9266 8.36324L 8.47664 8.36324ZM 7.20521 9.63881L 5.63291 9.63881L 5.63291 13.0888L 7.20521 13.0888L 7.20521 9.63881Z"/>
</defs>
</svg>
