<svg width="100" height="100" viewBox="0 0 100 100" version="1.1" xmlns="http://www.w3.org/2000/svg" xmlns:xlink="http://www.w3.org/1999/xlink">
<title>ninjia-icon</title>
<desc>Created using Figma</desc>
<g id="Canvas" transform="translate(1062 330)">
<g id="ninjia-icon">
<g id="Group">
<g id="Vector">
<use xlink:href="#path0_fill" transform="translate(-1012 -260.108)" fill="#A30000"/>
</g>
<g id="Vector">
<use xlink:href="#path1_fill" transform="translate(-1031.35 -260.645)" fill="#A30000"/>
</g>
<g id="Vector">
<use xlink:href="#path2_fill" transform="translate(-1020.06 -304.194)" fill="#A30000"/>
</g>
</g>
<g id="Group">
<g id="Vector">
<use xlink:href="#path3_fill" transform="translate(-1034.58 -305.806)" fill="#333333"/>
</g>
<g id="Vector">
<use xlink:href="#path4_fill" transform="translate(-1026.52 -291.29)" fill="#333333"/>
</g>
<g id="Vector">
<use xlink:href="#path4_fill" transform="translate(-1005.55 -291.29)" fill="#333333"/>
</g>
<g id="Vector">
<use xlink:href="#path5_fill" transform="translate(-1062 -330)" fill="#333333"/>
</g>
</g>
</g>
</g>
<defs>
<path id="path0_fill" d="M 20.4306 2.95331e-07L 4.83871 15.5919L 0 10.7532L 9.67742 1.07581L 20.4306 2.95331e-07Z"/>
<path id="path1_fill" d="M 11.8952 2.21774L 0 0L 29.0323 29.0323L 38.7097 29.0323L 11.8952 2.21774Z"/>
<path id="path2_fill" d="M 16.129 0L 0 0L 0 9.67742L 16.129 9.67742L 16.129 0Z"/>
<path id="path3_fill" d="M 22.5806 45.1613C 35.0323 45.1613 45.1613 35.0323 45.1613 22.5806L 45.1613 0L 0 0L 0 22.5806C 0 35.0323 10.129 45.1613 22.5806 45.1613ZM 22.5806 41.9355C 15.4677 41.9355 9.25484 38.0677 5.89194 32.3355L 8.89194 30.1936C 12.9081 27.3226 17.6419 25.8065 22.5806 25.8065C 27.5194 25.8065 32.2532 27.3226 36.2694 30.1936L 39.2694 32.3355C 35.9065 38.0677 29.6935 41.9355 22.5806 41.9355ZM 3.22581 22.5806L 3.22581 12.9032L 41.9355 12.9032L 41.9355 22.5806C 41.9355 24.9758 41.4774 27.2613 40.679 29.379L 38.1435 27.5694C 33.5774 24.3048 28.1952 22.5806 22.5806 22.5806C 16.9661 22.5806 11.5839 24.3048 7.01774 27.5694L 4.48226 29.379C 3.68387 27.2613 3.22581 24.9758 3.22581 22.5806ZM 41.9355 3.22581L 41.9355 9.67742L 3.22581 9.67742L 3.22581 3.22581L 41.9355 3.22581Z"/>
<path id="path4_fill" d="M 4.03226 8.06452C 6.25645 8.06452 8.06452 6.25645 8.06452 4.03226C 8.06452 1.80806 6.25645 0 4.03226 0C 1.80806 0 0 1.80806 0 4.03226C 0 6.25645 1.80806 8.06452 4.03226 8.06452ZM 4.03226 3.22581C 4.47581 3.22581 4.83871 3.58871 4.83871 4.03226C 4.83871 4.47581 4.47581 4.83871 4.03226 4.83871C 3.58871 4.83871 3.22581 4.47581 3.22581 4.03226C 3.22581 3.58871 3.58871 3.22581 4.03226 3.22581Z"/>
<path id="path5_fill" d="M 100 46.0242C 100 41.9903 96.7194 38.7097 92.6855 38.7097C 90.7306 38.7097 88.8952 39.471 87.5129 40.8516L 81.9032 46.4613C 82.1129 44.979 82.2581 43.4758 82.2581 41.9355L 82.2581 34.5161C 82.2581 26.4661 79.5532 18.5177 74.6452 12.1355C 68.8 4.53548 59.5855 0 50 0C 40.4129 0 31.1984 4.53548 25.3532 12.1355C 20.4452 18.5161 17.7419 26.4645 17.7419 34.5145L 17.7419 41.9355C 17.7419 43.4758 17.8871 44.979 18.0968 46.4613L 12.4871 40.8516C 11.1065 39.471 9.26935 38.7097 7.31452 38.7097C 3.28065 38.7097 0 41.9903 0 46.0242C 0 47.979 0.76129 49.8161 2.14194 51.1968L 10.6226 59.6774L 7.39677 62.9032L 14.5161 70.0226L 17.7419 66.7968L 20.9177 69.9726C 14.8258 71.9323 9.9 76.7839 7.9629 82.9855L 2.64516 100L 97.3548 100L 92.0371 82.9855C 90.1016 76.7903 85.1839 71.9419 79.0774 69.9758L 82.2581 66.7968L 85.4839 70.0226L 92.6032 62.9032L 89.3774 59.6774L 97.8581 51.1968C 99.2387 49.8161 100 47.979 100 46.0242ZM 96.7742 46.0242C 96.7742 46.521 96.6758 47 96.5065 47.4516L 91.2564 42.2016C 91.7097 42.0339 92.1887 41.9355 92.6855 41.9355C 94.9387 41.9355 96.7742 43.771 96.7742 46.0242ZM 20.9677 34.5145C 20.9677 27.171 23.4323 19.9226 27.9113 14.1016C 33.15 7.29194 41.4065 3.22581 50 3.22581C 58.5919 3.22581 66.8484 7.29194 72.0871 14.1016C 76.5661 19.9226 79.0323 27.1742 79.0323 34.5161L 79.0323 41.9355C 79.0323 57.9436 66.0081 70.9677 50 70.9677C 33.9919 70.9677 20.9677 57.9436 20.9677 41.9355L 20.9677 34.5145ZM 35.6742 70.7952C 37.6081 71.7597 39.65 72.529 41.779 73.0919L 65.4613 96.7742L 60.3452 96.7742L 34.6613 71.0903L 35.6952 70.9532L 35.6742 70.7952ZM 47.3048 74.0564C 48.1968 74.1306 49.0903 74.1936 50 74.1936C 51.5403 74.1936 53.0435 74.0484 54.5258 73.8387L 50.8065 77.5581L 47.3048 74.0564ZM 53.0871 79.8387L 60.5339 72.3919C 61.8387 71.9387 63.1032 71.4048 64.3258 70.7952L 64.3048 70.9532L 66.7645 71.2774L 55.6452 82.3968L 53.0871 79.8387ZM 13.8484 46.7742L 8.06452 52.5581L 5.50645 50L 11.2903 44.2161L 13.8484 46.7742ZM 7.31452 41.9355C 7.81129 41.9355 8.29032 42.0339 8.74194 42.2032L 3.49355 47.4516C 3.32419 47 3.22581 46.521 3.22581 46.0242C 3.22581 43.771 5.06129 41.9355 7.31452 41.9355ZM 10.3452 54.8387L 16.129 49.0548L 18.6871 51.6129L 12.9032 57.3968L 10.3452 54.8387ZM 11.9581 62.9032L 20.3129 54.5484C 20.8129 55.7226 21.4016 56.8468 22.0323 57.9452L 14.5161 65.4613L 11.9581 62.9032ZM 23.8242 60.7145C 25.9242 63.6323 28.4887 66.1871 31.4242 68.2629L 24.6613 69.1548L 20.0226 64.5161L 23.8242 60.7145ZM 11.0403 83.9468C 12.9258 77.9194 18.1774 73.4016 24.3855 72.4452L 30.6306 71.621L 55.7839 96.7742L 22.7952 96.7742L 24.1806 85.6839L 20.9806 85.2839L 19.5435 96.7742L 7.03226 96.7742L 11.0403 83.9468ZM 88.9597 83.9468L 92.9677 96.7742L 80.4565 96.7742L 79.0194 85.2839L 75.8194 85.6839L 77.2048 96.7742L 70.0226 96.7742L 57.9258 84.6774L 70.7935 71.8097L 75.579 72.4403C 81.8226 73.4016 87.0742 77.9194 88.9597 83.9468ZM 75.3387 69.1548L 68.5758 68.2629C 71.5113 66.1855 74.0758 63.6323 76.1758 60.7145L 79.9774 64.5161L 75.3387 69.1548ZM 85.4839 65.4613L 77.9661 57.9435C 78.5968 56.8452 79.1855 55.721 79.6855 54.5468L 88.0403 62.9016L 85.4839 65.4613ZM 81.3129 51.6129L 83.871 49.0548L 85.9532 51.1371L 88.2339 48.8565L 86.1516 46.7742L 88.7097 44.2161L 94.4935 50L 91.9355 52.5581L 89.8532 50.4758L 87.5726 52.7565L 89.6548 54.8387L 87.0968 57.3968L 81.3129 51.6129Z"/>
</defs>
</svg>
