<svg width="40" height="40" viewBox="0 0 40 40" version="1.1" xmlns="http://www.w3.org/2000/svg" xmlns:xlink="http://www.w3.org/1999/xlink">
<title>keymesh-logo--small</title>
<desc>Created using Figma</desc>
<g id="Canvas" transform="translate(1366 414)">
<g id="keymesh-logo--small">
<g id="Ellipse">
<use xlink:href="#path0_fill" transform="translate(-1366 -414)" fill="#F0F0F0"/>
</g>
<g id="g10">
<g id="g12">
<g id="path14">
<use xlink:href="#path1_fill" transform="matrix(1.33333 0 0 -1.33333 -1357.3 -390.739)" fill="#454649"/>
</g>
</g>
<g id="g16">
<g id="path18">
<use xlink:href="#path2_fill" transform="matrix(1.33333 0 0 -1.33333 -1351.66 -384.217)" fill="#454649"/>
</g>
</g>
<g id="g20">
<g id="path22">
<use xlink:href="#path3_fill" transform="matrix(1.33333 0 0 -1.33333 -1357.3 -380.957)" fill="#698EFF"/>
</g>
</g>
</g>
</g>
</g>
<defs>
<path id="path0_fill" d="M 40 20C 40 31.0457 31.0457 40 20 40C 8.9543 40 0 31.0457 0 20C 0 8.9543 8.9543 0 20 0C 31.0457 0 40 8.9543 40 20Z"/>
<path id="path1_fill" d="M 10.59 11.0054L 8.472 12.2283L 6.35399 11.0054L 4.23598 9.78261L 2.11801 8.55978L -2.93949e-07 7.33696L -2.93949e-07 4.89131L 2.11797 3.66848L 2.11801 3.66848L 2.11801 6.11413L 4.23598 7.33696L 6.35399 8.55978L 8.472 9.78261L 10.59 8.55978L 10.59 6.11413L 10.59 6.11413L 10.59 6.11413L 10.59 3.66848L 10.59 1.22283L 10.59 1.22283L 12.708 0L 12.708 2.44565L 12.708 4.89131L 12.708 7.33696L 12.708 9.78261L 10.59 11.0054Z"/>
<path id="path2_fill" d="M 12.708 4.8913L 12.708 7.33696L 12.708 9.78261L 12.708 9.78261L 12.708 9.78261L 12.708 12.2283L 10.59 13.4511L 8.472 12.2283L 10.59 11.0054L 10.59 8.55978L 10.59 6.11413L 10.59 3.66848L 8.472 2.44565L 6.35399 3.66848L 4.23602 4.8913L 2.11801 6.11413L 0 4.8913L 2.11801 3.66848L 4.23602 2.44565L 6.35399 1.22283L 8.472 0L 10.59 1.22283L 12.708 2.44565L 12.708 2.44565L 12.708 2.44565L 12.708 4.8913Z"/>
<path id="path3_fill" d="M 10.59 3.66848L 8.472 2.44565L 6.35399 3.66848L 4.23598 4.8913L 2.11801 6.11413L 2.11801 8.55978L 4.23598 9.78261L 6.35399 11.0054L 8.472 12.2283L 8.472 14.6739L 6.35399 13.4511L 4.23598 12.2283L 2.11801 11.0054L 0 9.78261L 0 7.33696L 0 4.8913L 2.11801 3.66848L 4.23598 2.44565L 6.35399 1.22283L 8.472 0L 10.59 1.22283L 10.59 3.66848Z"/>
</defs>
</svg>
